<?xml version="1.0" encoding="utf-8"?>
<!-- Generator: Adobe Illustrator 23.0.4, SVG Export Plug-In . SVG Version: 6.00 Build 0)  -->
<svg version="1.1" id="Layer_1" xmlns="http://www.w3.org/2000/svg" xmlns:xlink="http://www.w3.org/1999/xlink" x="0px" y="0px"
	 viewBox="0 0 128 128" style="enable-background:new 0 0 128 128;" xml:space="preserve">
<style type="text/css">
	.st0{fill:#FFFFFF;}
</style>
<title>icon-white</title>
<g>
	<g id="Layer_1-2">
		<path class="st0" d="M88.6,50.8c6.5-3.8-0.5-11.4-4-13.6c-11.5-7.1-28.5-7.6-40.7-2.1c-3.5,1.6-9.8,6.2-7.3,11.6
			c0.7,1.4,1.9,2,2.9,3c-0.1-0.1-2.1,2-3.4,5.4c-1,2.4-1.7,4.9-2.2,7.4c-0.7,4.1-1.1,8.3-1.2,12.5c0,4.6,0.7,10.1,4.4,13.3
			c3.3,2.9,8.6,0.7,12.3-0.1c4.9-1.3,10-1.9,15.1-1.9c5.8,0.2,11.4,1.6,17.1,2.1c3.8,0.3,9.3,0.8,11.3-3.6c0.3-0.7,0.5-1.4,0.6-2.1
			c1.1-6.6,1.3-13.3,0.6-19.9C93.6,58.6,92.6,52.8,88.6,50.8z"/>
		<path class="st0" d="M64,0C28.6,0,0,28.7,0,64s28.7,64,64,64s64-28.7,64-64c0,0,0,0,0,0C128,28.7,99.3,0,64,0C64,0,64,0,64,0z
			 M101.8,77.3c-0.1,5.4-0.1,10.8-1.2,16.1c-1.2,5.5-8.1,5.1-12.2,5.1c-7.8-0.1-15.6-2-23.4-2.2c-5.5-0.1-11,0.9-16.5,1.5
			c-4.9,0.6-10.4,2.2-15.3,1.6l0,0c-6.1-0.9-7.9-8.8-8.4-14.3c-0.9-8.7-1.4-15.6,1.7-26.5c1-3.3,2.6-6.5,4.7-9.2l-1.6-1.7
			c-1.1-1.1-1.9-2.4-2.5-3.8C25,38.3,29.8,33.2,34,30.6c16-10.1,38.2-10.8,54.7-2c4.6,2.5,9.2,6.2,11.2,11.4c1.5,4,1.8,9.5-2.4,11.7
			c-0.5,0.1-1,0.1-1.4,0c3.6,0.9,4.8,5.2,5.1,8.7c0.5,5,0.7,10.1,0.7,15.2C101.8,76.2,101.8,76.7,101.8,77.3z"/>
	</g>
</g>
</svg>
